<svg version="1.2" xmlns="http://www.w3.org/2000/svg" viewBox="0 0 380 380" width="380" height="380">
	<title>gitlab-svg</title>
	<style>
		.s0 { fill: #e24329 } 
		.s1 { fill: #fc6d26 } 
		.s2 { fill: #fca326 } 
	</style>
	<g id="LOGO">
		<path id="Layer" class="s0" d="m379.4 182c0.4 10.3-0.8 20.6-3.7 30.5-2.8 9.9-7.2 19.3-13.1 27.8-5.8 8.5-13 16-21.2 22.2l-0.2 0.2-79 59.2-38.9 29.4-23.7 17.9c-1.3 1-2.9 1.8-4.5 2.4-1.6 0.5-3.4 0.8-5.1 0.8-1.7 0-3.4-0.3-5.1-0.8-1.6-0.6-3.1-1.4-4.5-2.4l-23.7-17.9-38.9-29.4-78.5-58.8-0.5-0.4-0.2-0.1c-8.2-6.2-15.4-13.7-21.2-22.2-5.9-8.5-10.3-17.9-13.1-27.9-2.9-9.9-4.1-20.2-3.7-30.5 0.5-10.3 2.6-20.5 6.3-30.1l0.5-1.4 51.7-134.5q0.3-1 0.9-1.9 0.5-0.9 1.2-1.7 0.7-0.8 1.5-1.5 0.8-0.7 1.7-1.3 1.8-1.1 3.8-1.6 2.1-0.6 4.2-0.5 2.1 0.2 4.1 0.9 2 0.7 3.6 2 0.9 0.7 1.6 1.5 0.7 0.8 1.3 1.7 0.6 0.9 1 1.8 0.4 1 0.7 2l34.8 106.6h141.1l34.8-106.6q0.3-1 0.7-2 0.4-0.9 1-1.8 0.6-0.9 1.3-1.7 0.7-0.8 1.6-1.4 1.6-1.3 3.6-2.1 2-0.7 4.1-0.8 2.1-0.2 4.2 0.4 2 0.5 3.8 1.6 0.9 0.6 1.7 1.3 0.8 0.7 1.5 1.5 0.7 0.8 1.2 1.7 0.6 0.9 0.9 1.9l51.6 134.6 0.6 1.4c3.6 9.6 5.7 19.8 6.2 30z"/>
		<path id="Layer" class="s1" d="m379.4 182.1c0.4 10.3-0.8 20.6-3.7 30.5-2.8 9.9-7.2 19.3-13.1 27.8-5.8 8.5-13 16-21.2 22.2l-0.2 0.2-79 59.2c0 0-33.6-25.4-72.2-54.6l113.3-85.6q7.6-5.8 15.9-10.6 8.3-4.9 17-8.8 8.8-4 17.9-6.9 9.1-3 18.5-4.9l0.6 1.4c3.6 9.6 5.7 19.8 6.2 30.1z"/>
		<path id="Layer" class="s2" d="m190 267.4c38.6 29.1 72.2 54.6 72.2 54.6l-38.9 29.4-23.7 17.9c-1.3 1-2.9 1.8-4.5 2.4-1.6 0.5-3.4 0.8-5.1 0.8-1.7 0-3.4-0.3-5.1-0.8-1.6-0.6-3.1-1.4-4.5-2.4l-23.7-17.9-38.9-29.4c0 0 33.6-25.5 72.2-54.6z"/>
		<path id="Layer" class="s1" d="m190 267.4c-38.6 29.1-72.2 54.5-72.2 54.5l-78.5-58.8-0.5-0.4-0.2-0.1c-8.2-6.2-15.4-13.7-21.2-22.2-5.9-8.5-10.3-17.9-13.1-27.9-2.9-9.9-4.1-20.2-3.7-30.5 0.5-10.3 2.6-20.5 6.3-30.1l0.5-1.4q9.4 2 18.5 4.9 9.1 3 17.9 6.9 8.7 4 17 8.8 8.2 4.9 15.9 10.7z"/>
	</g>
</svg>